<svg width="531" height="322" viewBox="0 0 531 322" fill="none" xmlns="http://www.w3.org/2000/svg">
<path fill-rule="evenodd" clip-rule="evenodd" d="M298.858 43.1998C333.243 43.1998 361.758 66.5625 367.036 97.1428H431.133C448.017 97.1428 461.703 110.838 461.703 127.732V208.725H502.206C509.613 208.725 515.617 214.732 515.617 222.143V295.92H461.703H370.865H265.994V296.66H15.6312V195.996C15.6312 185.885 23.8232 177.689 33.9286 177.689H130.822C138.983 131.602 180.505 95.9648 231.567 92.9205C238.626 64.4377 266.074 43.1998 298.858 43.1998Z" fill="#849EFA" fill-opacity="0.11"/>
<path fill-rule="evenodd" clip-rule="evenodd" d="M262.248 95.1487H274.709V121.679H274.857V153.23H283.017V132.552H295.477V153.23H319.828V100.091H350.745V196.405H381.663V294.38H350.745H319.828H308.456V295.266H259.105H241.48H203.879H178.028V132.819H203.879V177.249H241.48V150.868H253.777V121.679H262.248V95.1487ZM178.028 295.266H152.178V213.348H178.028V295.266Z" fill="#ECE6E6"/>
<path fill-rule="evenodd" clip-rule="evenodd" d="M418.008 67.0961H430.469V93.857H455.991V193.249H493.669V294.354H455.991H418.312H363.506H337.816H265.883V218.954H337.816V116.419H337.653L337.816 116.16V116.134H337.832L350.782 95.6607L363.912 116.419H363.506V148.694H418.312V101.383H418.008V67.0961Z" fill="#1B5C6A"/>
<path d="M343.364 114.703L349.816 105.344L356.59 114.703H343.364Z" fill="black" fill-opacity="0.12"/>
<path d="M151.761 266.45C137.087 266.116 137.087 288.473 151.761 295.481H491.605C491.605 291.699 507.944 278.463 494.271 272.123C485.555 268.082 490.046 258.107 487.936 257.106C483.155 263.224 471.261 270.988 461.919 253.102C450.249 230.744 455.585 263.78 443.579 275.46C431.572 287.139 435 252.175 423.235 253.102C417.369 253.564 415.71 261.002 409.895 260.11C403.977 259.201 405.197 249.485 399.222 249.098C391.915 248.624 393.578 267.939 387.55 263.78C385.049 262.055 386.059 258.817 383.547 257.106C378.023 253.344 376.678 261.378 369.207 266.45C359.869 272.79 369.874 270.788 363.204 253.102C356.534 235.416 349.45 260.11 342.498 263.78C323.673 273.719 331.187 262.779 318.514 253.102C305.841 243.425 299.171 256.106 279.827 266.45C260.484 276.794 278.827 249.098 270.49 242.424C262.152 235.75 243.142 239.754 223.465 253.102C203.788 266.45 218.796 245.427 211.125 239.754C203.498 234.113 196.53 239.691 184.974 248.941L184.778 249.098C175.44 256.572 180.522 240.636 175.44 239.754C166.88 238.269 166.436 247.563 166.436 260.11C166.436 275.793 166.436 266.784 151.761 266.45Z" fill="#034AB0"/>
<path d="M170.46 269.662C157.564 269.369 157.564 289.017 170.46 295.176H469.124C469.124 291.852 483.486 280.219 471.468 274.647C463.809 271.096 467.758 262.33 465.901 261.451C461.699 266.827 451.246 273.65 443.039 257.931C432.781 238.283 437.47 267.316 426.918 277.58C416.367 287.844 419.379 257.117 409.04 257.931C403.885 258.337 402.427 264.874 397.316 264.09C392.115 263.292 393.187 254.753 387.937 254.412C381.515 253.996 382.976 270.971 377.678 267.316C375.481 265.8 376.368 262.953 374.161 261.451C369.306 258.144 368.124 265.204 361.558 269.662C353.352 275.234 362.144 273.474 356.283 257.931C350.42 242.388 344.196 264.09 338.085 267.316C321.542 276.05 328.146 266.436 317.008 257.931C305.87 249.427 293.591 262.875 276.591 271.967C259.591 281.058 254.368 260.082 254.368 252.001C254.368 242.513 242.399 246.201 233.475 257.931C220.822 274.565 227.527 256.987 220.786 252.001C214.045 247.016 210.4 249.72 200.141 257.931C191.935 264.5 195.735 246.976 191.27 246.201C183.747 244.895 183.356 253.063 183.356 264.09C183.356 277.873 183.356 269.955 170.46 269.662Z" fill="#013581"/>
<path d="M369.168 160.211H363.362V166.666H369.168V160.211Z" fill="white" fill-opacity="0.78"/>
<path d="M376.91 160.211H371.104V166.666H376.91V160.211Z" fill="white" fill-opacity="0.78"/>
<path d="M384.652 160.211H378.845V166.666H384.652V160.211Z" fill="white" fill-opacity="0.78"/>
<path d="M392.394 160.211H386.587V166.666H392.394V160.211Z" fill="white" fill-opacity="0.78"/>
<path d="M369.168 169.894H363.361V176.349H369.168V169.894Z" fill="white" fill-opacity="0.78"/>
<path d="M376.91 169.894H371.103V176.349H376.91V169.894Z" fill="white" fill-opacity="0.78"/>
<path d="M384.651 169.894H378.845V176.349H384.651V169.894Z" fill="white" fill-opacity="0.78"/>
<path d="M392.393 169.894H386.586V176.349H392.393V169.894Z" fill="white" fill-opacity="0.78"/>
<path d="M369.168 179.577H363.361V186.032H369.168V179.577Z" fill="white" fill-opacity="0.78"/>
<path d="M376.91 179.576H371.103V186.031H376.91V179.576Z" fill="white" fill-opacity="0.78"/>
<path d="M384.651 179.576H378.845V186.031H384.651V179.576Z" fill="white" fill-opacity="0.78"/>
<path d="M392.393 179.576H386.586V186.031H392.393V179.576Z" fill="white" fill-opacity="0.78"/>
<path d="M369.168 189.26H363.361V195.715H369.168V189.26Z" fill="white" fill-opacity="0.78"/>
<path d="M376.91 189.259H371.103V195.714H376.91V189.259Z" fill="white" fill-opacity="0.78"/>
<path d="M384.651 189.259H378.845V195.714H384.651V189.259Z" fill="white" fill-opacity="0.78"/>
<path d="M392.393 189.259H386.586V195.714H392.393V189.259Z" fill="white" fill-opacity="0.78"/>
<path d="M431.878 104.052H427.233V109.217H431.878V104.052Z" fill="white" fill-opacity="0.78"/>
<path d="M438.07 104.052H433.425V109.217H438.07V104.052Z" fill="white" fill-opacity="0.78"/>
<path d="M444.263 104.052H439.618V109.217H444.263V104.052Z" fill="white" fill-opacity="0.78"/>
<path d="M450.458 104.052H445.813V109.217H450.458V104.052Z" fill="white" fill-opacity="0.78"/>
<path d="M431.878 111.799H427.233V116.963H431.878V111.799Z" fill="white" fill-opacity="0.78"/>
<path d="M438.07 111.798H433.425V116.962H438.07V111.798Z" fill="white" fill-opacity="0.78"/>
<path d="M444.262 111.798H439.617V116.962H444.262V111.798Z" fill="white" fill-opacity="0.78"/>
<path d="M450.458 111.798H445.813V116.962H450.458V111.798Z" fill="white" fill-opacity="0.78"/>
<path d="M431.878 119.545H427.233V124.709H431.878V119.545Z" fill="white" fill-opacity="0.78"/>
<path d="M438.07 119.545H433.425V124.709H438.07V119.545Z" fill="white" fill-opacity="0.78"/>
<path d="M444.262 119.545H439.617V124.709H444.262V119.545Z" fill="white" fill-opacity="0.78"/>
<path d="M450.458 119.545H445.813V124.709H450.458V119.545Z" fill="white" fill-opacity="0.78"/>
<path d="M431.878 127.291H427.233V132.455H431.878V127.291Z" fill="white" fill-opacity="0.78"/>
<path d="M438.07 127.291H433.425V132.455H438.07V127.291Z" fill="white" fill-opacity="0.78"/>
<path d="M444.262 127.291H439.617V132.455H444.262V127.291Z" fill="white" fill-opacity="0.78"/>
<path d="M450.458 127.291H445.813V132.455H450.458V127.291Z" fill="white" fill-opacity="0.78"/>
<path d="M464.006 202.17H458.2V208.625H464.006V202.17Z" fill="white" fill-opacity="0.78"/>
<path d="M471.748 202.17H465.942V208.625H471.748V202.17Z" fill="white" fill-opacity="0.78"/>
<path d="M479.49 202.17H473.684V208.625H479.49V202.17Z" fill="white" fill-opacity="0.78"/>
<path d="M487.233 202.17H481.426V208.625H487.233V202.17Z" fill="white" fill-opacity="0.78"/>
<path d="M464.005 211.852H458.199V218.307H464.005V211.852Z" fill="white" fill-opacity="0.78"/>
<path d="M471.748 211.852H465.942V218.307H471.748V211.852Z" fill="white" fill-opacity="0.78"/>
<path d="M479.49 211.852H473.684V218.307H479.49V211.852Z" fill="white" fill-opacity="0.78"/>
<path d="M487.233 211.852H481.426V218.307H487.233V211.852Z" fill="white" fill-opacity="0.78"/>
<path d="M464.005 221.535H458.199V227.99H464.005V221.535Z" fill="white" fill-opacity="0.78"/>
<path d="M471.748 221.535H465.942V227.99H471.748V221.535Z" fill="white" fill-opacity="0.78"/>
<path d="M479.49 221.535H473.684V227.99H479.49V221.535Z" fill="white" fill-opacity="0.78"/>
<path d="M487.233 221.535H481.426V227.99H487.233V221.535Z" fill="white" fill-opacity="0.78"/>
<path d="M464.005 231.217H458.199V237.672H464.005V231.217Z" fill="white" fill-opacity="0.78"/>
<path d="M471.748 231.217H465.942V237.672H471.748V231.217Z" fill="white" fill-opacity="0.78"/>
<path d="M479.49 231.217H473.684V237.672H479.49V231.217Z" fill="white" fill-opacity="0.78"/>
<path d="M487.233 231.217H481.426V237.672H487.233V231.217Z" fill="white" fill-opacity="0.78"/>
<path d="M369.168 202.17H363.362V208.625H369.168V202.17Z" fill="white" fill-opacity="0.78"/>
<path d="M376.91 202.17H371.104V208.625H376.91V202.17Z" fill="white" fill-opacity="0.78"/>
<path d="M384.652 202.17H378.845V208.625H384.652V202.17Z" fill="white" fill-opacity="0.78"/>
<path d="M392.394 202.17H386.587V208.625H392.394V202.17Z" fill="white" fill-opacity="0.78"/>
<path d="M369.168 211.852H363.361V218.307H369.168V211.852Z" fill="white" fill-opacity="0.78"/>
<path d="M376.91 211.852H371.103V218.307H376.91V211.852Z" fill="white" fill-opacity="0.78"/>
<path d="M384.651 211.852H378.845V218.307H384.651V211.852Z" fill="white" fill-opacity="0.78"/>
<path d="M392.393 211.852H386.586V218.307H392.393V211.852Z" fill="white" fill-opacity="0.78"/>
<path d="M369.168 221.535H363.361V227.99H369.168V221.535Z" fill="white" fill-opacity="0.78"/>
<path d="M376.91 221.535H371.103V227.99H376.91V221.535Z" fill="white" fill-opacity="0.78"/>
<path d="M384.651 221.535H378.845V227.99H384.651V221.535Z" fill="white" fill-opacity="0.78"/>
<path d="M392.393 221.535H386.586V227.99H392.393V221.535Z" fill="white" fill-opacity="0.78"/>
<path d="M369.168 231.217H363.361V237.672H369.168V231.217Z" fill="white" fill-opacity="0.78"/>
<path d="M376.91 231.217H371.103V237.672H376.91V231.217Z" fill="white" fill-opacity="0.78"/>
<path d="M384.651 231.217H378.845V237.672H384.651V231.217Z" fill="white" fill-opacity="0.78"/>
<path d="M392.393 231.217H386.586V237.672H392.393V231.217Z" fill="white" fill-opacity="0.78"/>
<path d="M277.558 159.566H274.333V163.152H277.558V159.566Z" fill="white" fill-opacity="0.35"/>
<path d="M281.859 159.566H278.633V163.152H281.859V159.566Z" fill="white" fill-opacity="0.35"/>
<path d="M286.16 159.566H282.935V163.152H286.16V159.566Z" fill="white" fill-opacity="0.35"/>
<path d="M290.461 159.566H287.235V163.152H290.461V159.566Z" fill="white" fill-opacity="0.35"/>
<path d="M277.558 164.945H274.333V168.532H277.558V164.945Z" fill="white" fill-opacity="0.35"/>
<path d="M281.859 164.945H278.633V168.532H281.859V164.945Z" fill="white" fill-opacity="0.35"/>
<path d="M286.16 164.945H282.935V168.532H286.16V164.945Z" fill="white" fill-opacity="0.35"/>
<path d="M290.461 164.945H287.235V168.532H290.461V164.945Z" fill="white" fill-opacity="0.35"/>
<path d="M277.558 170.325H274.333V173.911H277.558V170.325Z" fill="white" fill-opacity="0.35"/>
<path d="M281.859 170.325H278.633V173.911H281.859V170.325Z" fill="white" fill-opacity="0.35"/>
<path d="M286.16 170.325H282.935V173.911H286.16V170.325Z" fill="white" fill-opacity="0.35"/>
<path d="M290.461 170.325H287.235V173.911H290.461V170.325Z" fill="white" fill-opacity="0.35"/>
<path d="M277.558 175.704H274.333V179.29H277.558V175.704Z" fill="white" fill-opacity="0.35"/>
<path d="M281.859 175.704H278.633V179.29H281.859V175.704Z" fill="white" fill-opacity="0.35"/>
<path d="M286.16 175.704H282.935V179.29H286.16V175.704Z" fill="white" fill-opacity="0.35"/>
<path d="M290.461 175.704H287.235V179.29H290.461V175.704Z" fill="white" fill-opacity="0.35"/>
<path d="M277.558 188.613H274.333V192.199H277.558V188.613Z" fill="white" fill-opacity="0.35"/>
<path d="M281.859 188.613H278.633V192.199H281.859V188.613Z" fill="white" fill-opacity="0.35"/>
<path d="M286.16 188.613H282.935V192.199H286.16V188.613Z" fill="white" fill-opacity="0.35"/>
<path d="M290.461 188.613H287.235V192.199H290.461V188.613Z" fill="white" fill-opacity="0.35"/>
<path d="M277.558 193.993H274.333V197.579H277.558V193.993Z" fill="white" fill-opacity="0.35"/>
<path d="M281.859 193.993H278.633V197.579H281.859V193.993Z" fill="white" fill-opacity="0.35"/>
<path d="M286.16 193.993H282.935V197.579H286.16V193.993Z" fill="white" fill-opacity="0.35"/>
<path d="M290.461 193.993H287.235V197.579H290.461V193.993Z" fill="white" fill-opacity="0.35"/>
<path d="M277.558 199.372H274.333V202.958H277.558V199.372Z" fill="white" fill-opacity="0.35"/>
<path d="M281.859 199.372H278.633V202.958H281.859V199.372Z" fill="white" fill-opacity="0.35"/>
<path d="M286.16 199.372H282.935V202.958H286.16V199.372Z" fill="white" fill-opacity="0.35"/>
<path d="M290.461 199.372H287.235V202.958H290.461V199.372Z" fill="white" fill-opacity="0.35"/>
<path d="M277.558 204.751H274.333V208.337H277.558V204.751Z" fill="white" fill-opacity="0.35"/>
<path d="M281.859 204.751H278.633V208.337H281.859V204.751Z" fill="white" fill-opacity="0.35"/>
<path d="M286.16 204.751H282.935V208.337H286.16V204.751Z" fill="white" fill-opacity="0.35"/>
<path d="M290.461 204.751H287.235V208.337H290.461V204.751Z" fill="white" fill-opacity="0.35"/>
<path d="M307.233 184.095H304.007V187.681H307.233V184.095Z" fill="white" fill-opacity="0.35"/>
<path d="M311.533 184.095H308.307V187.681H311.533V184.095Z" fill="white" fill-opacity="0.35"/>
<path d="M315.835 184.095H312.609V187.681H315.835V184.095Z" fill="white" fill-opacity="0.35"/>
<path d="M320.136 184.095H316.91V187.681H320.136V184.095Z" fill="white" fill-opacity="0.35"/>
<path d="M307.233 189.474H304.007V193.061H307.233V189.474Z" fill="white" fill-opacity="0.35"/>
<path d="M311.534 189.474H308.308V193.061H311.534V189.474Z" fill="white" fill-opacity="0.35"/>
<path d="M315.836 189.474H312.61V193.061H315.836V189.474Z" fill="white" fill-opacity="0.35"/>
<path d="M320.136 189.474H316.91V193.061H320.136V189.474Z" fill="white" fill-opacity="0.35"/>
<path d="M307.233 194.854H304.007V198.44H307.233V194.854Z" fill="white" fill-opacity="0.35"/>
<path d="M311.534 194.854H308.308V198.44H311.534V194.854Z" fill="white" fill-opacity="0.35"/>
<path d="M315.836 194.854H312.61V198.44H315.836V194.854Z" fill="white" fill-opacity="0.35"/>
<path d="M320.136 194.854H316.91V198.44H320.136V194.854Z" fill="white" fill-opacity="0.35"/>
<path d="M307.233 200.233H304.007V203.819H307.233V200.233Z" fill="white" fill-opacity="0.35"/>
<path d="M311.534 200.233H308.308V203.819H311.534V200.233Z" fill="white" fill-opacity="0.35"/>
<path d="M315.836 200.233H312.61V203.819H315.836V200.233Z" fill="white" fill-opacity="0.35"/>
<path d="M320.136 200.233H316.91V203.819H320.136V200.233Z" fill="white" fill-opacity="0.35"/>
<path d="M185.948 144.721H182.722V148.307H185.948V144.721Z" fill="white" fill-opacity="0.35"/>
<path d="M190.247 144.72H187.021V148.306H190.247V144.72Z" fill="white" fill-opacity="0.35"/>
<path d="M194.549 144.72H191.323V148.306H194.549V144.72Z" fill="white" fill-opacity="0.35"/>
<path d="M198.848 144.72H195.623V148.306H198.848V144.72Z" fill="white" fill-opacity="0.35"/>
<path d="M185.947 150.099H182.721V153.686H185.947V150.099Z" fill="white" fill-opacity="0.35"/>
<path d="M190.249 150.099H187.023V153.685H190.249V150.099Z" fill="white" fill-opacity="0.35"/>
<path d="M194.55 150.099H191.325V153.685H194.55V150.099Z" fill="white" fill-opacity="0.35"/>
<path d="M198.85 150.099H195.625V153.685H198.85V150.099Z" fill="white" fill-opacity="0.35"/>
<path d="M185.947 155.479H182.721V159.066H185.947V155.479Z" fill="white" fill-opacity="0.35"/>
<path d="M190.249 155.478H187.023V159.064H190.249V155.478Z" fill="white" fill-opacity="0.35"/>
<path d="M194.55 155.478H191.325V159.064H194.55V155.478Z" fill="white" fill-opacity="0.35"/>
<path d="M198.85 155.478H195.625V159.064H198.85V155.478Z" fill="white" fill-opacity="0.35"/>
<path d="M185.947 160.858H182.721V164.444H185.947V160.858Z" fill="white" fill-opacity="0.35"/>
<path d="M190.249 160.857H187.023V164.444H190.249V160.857Z" fill="white" fill-opacity="0.35"/>
<path d="M194.55 160.857H191.325V164.444H194.55V160.857Z" fill="white" fill-opacity="0.35"/>
<path d="M198.85 160.857H195.625V164.444H198.85V160.857Z" fill="white" fill-opacity="0.35"/>
<path d="M185.948 169.249H182.722V172.835H185.948V169.249Z" fill="white" fill-opacity="0.35"/>
<path d="M190.247 169.249H187.021V172.835H190.247V169.249Z" fill="white" fill-opacity="0.35"/>
<path d="M194.549 169.249H191.323V172.835H194.549V169.249Z" fill="white" fill-opacity="0.35"/>
<path d="M198.849 169.249H195.623V172.835H198.849V169.249Z" fill="white" fill-opacity="0.35"/>
<path d="M185.947 174.628H182.721V178.214H185.947V174.628Z" fill="white" fill-opacity="0.35"/>
<path d="M190.249 174.628H187.023V178.214H190.249V174.628Z" fill="white" fill-opacity="0.35"/>
<path d="M194.55 174.628H191.325V178.214H194.55V174.628Z" fill="white" fill-opacity="0.35"/>
<path d="M198.85 174.628H195.625V178.214H198.85V174.628Z" fill="white" fill-opacity="0.35"/>
<path d="M185.947 180.007H182.721V183.593H185.947V180.007Z" fill="white" fill-opacity="0.35"/>
<path d="M190.249 180.007H187.023V183.593H190.249V180.007Z" fill="white" fill-opacity="0.35"/>
<path d="M194.55 180.007H191.325V183.593H194.55V180.007Z" fill="white" fill-opacity="0.35"/>
<path d="M198.85 180.007H195.625V183.593H198.85V180.007Z" fill="white" fill-opacity="0.35"/>
<path d="M185.947 185.387H182.721V188.973H185.947V185.387Z" fill="white" fill-opacity="0.35"/>
<path d="M190.249 185.386H187.023V188.973H190.249V185.386Z" fill="white" fill-opacity="0.35"/>
<path d="M194.55 185.386H191.325V188.973H194.55V185.386Z" fill="white" fill-opacity="0.35"/>
<path d="M198.85 185.386H195.625V188.973H198.85V185.386Z" fill="white" fill-opacity="0.35"/>
<path d="M185.948 193.777H182.722V197.364H185.948V193.777Z" fill="white" fill-opacity="0.35"/>
<path d="M190.248 193.777H187.022V197.364H190.248V193.777Z" fill="white" fill-opacity="0.35"/>
<path d="M194.55 193.777H191.324V197.364H194.55V193.777Z" fill="white" fill-opacity="0.35"/>
<path d="M198.85 193.777H195.625V197.364H198.85V193.777Z" fill="white" fill-opacity="0.35"/>
<path d="M185.947 199.156H182.721V202.743H185.947V199.156Z" fill="white" fill-opacity="0.35"/>
<path d="M190.248 199.156H187.022V202.743H190.248V199.156Z" fill="white" fill-opacity="0.35"/>
<path d="M194.55 199.156H191.324V202.743H194.55V199.156Z" fill="white" fill-opacity="0.35"/>
<path d="M198.85 199.156H195.625V202.743H198.85V199.156Z" fill="white" fill-opacity="0.35"/>
<path d="M185.947 204.536H182.721V208.122H185.947V204.536Z" fill="white" fill-opacity="0.35"/>
<path d="M190.249 204.536H187.023V208.122H190.249V204.536Z" fill="white" fill-opacity="0.35"/>
<path d="M194.55 204.536H191.324V208.122H194.55V204.536Z" fill="white" fill-opacity="0.35"/>
<path d="M198.85 204.536H195.625V208.122H198.85V204.536Z" fill="white" fill-opacity="0.35"/>
<path d="M185.947 209.915H182.721V213.501H185.947V209.915Z" fill="white" fill-opacity="0.35"/>
<path d="M190.248 209.915H187.022V213.501H190.248V209.915Z" fill="white" fill-opacity="0.35"/>
<path d="M194.55 209.915H191.324V213.501H194.55V209.915Z" fill="white" fill-opacity="0.35"/>
<path d="M198.85 209.915H195.625V213.501H198.85V209.915Z" fill="white" fill-opacity="0.35"/>
<path d="M231.753 193.777H228.527V197.364H231.753V193.777Z" fill="white" fill-opacity="0.35"/>
<path d="M236.054 193.777H232.829V197.364H236.054V193.777Z" fill="white" fill-opacity="0.35"/>
<path d="M240.355 193.777H237.129V197.364H240.355V193.777Z" fill="white" fill-opacity="0.35"/>
<path d="M244.656 193.777H241.43V197.364H244.656V193.777Z" fill="white" fill-opacity="0.35"/>
<path d="M231.753 199.157H228.527V202.744H231.753V199.157Z" fill="white" fill-opacity="0.35"/>
<path d="M236.054 199.156H232.829V202.743H236.054V199.156Z" fill="white" fill-opacity="0.35"/>
<path d="M240.356 199.156H237.13V202.743H240.356V199.156Z" fill="white" fill-opacity="0.35"/>
<path d="M244.656 199.156H241.431V202.743H244.656V199.156Z" fill="white" fill-opacity="0.35"/>
<path d="M231.753 204.536H228.527V208.122H231.753V204.536Z" fill="white" fill-opacity="0.35"/>
<path d="M236.054 204.536H232.829V208.122H236.054V204.536Z" fill="white" fill-opacity="0.35"/>
<path d="M240.355 204.536H237.129V208.122H240.355V204.536Z" fill="white" fill-opacity="0.35"/>
<path d="M244.656 204.536H241.43V208.122H244.656V204.536Z" fill="white" fill-opacity="0.35"/>
<path d="M231.753 209.915H228.527V213.501H231.753V209.915Z" fill="white" fill-opacity="0.35"/>
<path d="M236.054 209.916H232.829V213.502H236.054V209.916Z" fill="white" fill-opacity="0.35"/>
<path d="M240.356 209.916H237.13V213.502H240.356V209.916Z" fill="white" fill-opacity="0.35"/>
<path d="M244.656 209.916H241.431V213.502H244.656V209.916Z" fill="white" fill-opacity="0.35"/>
<path fill-rule="evenodd" clip-rule="evenodd" d="M146.594 25.3H141.433V37.73C141.433 37.7338 141.433 37.7377 141.433 37.7415V40.1042C141.433 40.108 141.433 40.1119 141.433 40.1157V295.123H146.594V41.5315H184.039C184.827 41.5315 185.466 40.8925 185.466 40.1042V37.7415C185.466 36.9532 184.827 36.3142 184.039 36.3142H146.594V25.3Z" fill="#0753BF"/>
<path d="M144.33 25.3H141.433V291.966H144.33V25.3Z" fill="black" fill-opacity="0.05"/>
<path d="M179.67 41.8176C179.67 45.8909 178.113 49.7973 175.342 52.6779C172.572 55.5579 168.814 57.1762 164.895 57.1762C160.977 57.1762 157.219 55.5579 154.448 52.6779C151.677 49.7973 150.121 45.8909 150.121 41.8176H164.895H179.67Z" fill="#F7FAFE"/>
<path d="M158.234 41.5322L165.766 56.8946C153.251 56.1987 150.316 46.3629 150.412 41.5322H158.234Z" fill="#311F9E" fill-opacity="0.04"/>
<path d="M54.9831 295.768L140.787 56.586L145.303 40.1463H178.205L295.622 295.768H54.9831Z" fill="#FEBDA9" fill-opacity="0.68"/>
<path d="M58.21 295.768L144.014 56.586L148.53 40.1463H157.884L120.466 295.768H58.21Z" fill="#FBBA7D" fill-opacity="0.15"/>
<path d="M274.009 296.413L188.205 57.2318L183.689 40.7922H174.334L211.752 296.413H274.009Z" fill="#FBBA7D" fill-opacity="0.15"/>
</svg>
