<svg width="407" height="362" viewBox="0 0 407 362" fill="none" xmlns="http://www.w3.org/2000/svg">
<path d="M273.642 311.336C272.333 322.053 271.315 330.087 260.563 335.828C262.361 326.189 265.349 311.343 268.488 298.019C264.654 286.474 257.331 262.225 258.708 257.597C260.845 264.114 266.727 277.742 273.154 280.108C274.718 274.877 276.186 270.938 277.414 269.212C278.692 270.898 280.284 276.63 278.346 287.339C282.253 295.862 288.644 314.615 282.951 321.432L284.462 323.099C287.843 311.682 291.81 283.557 280.621 262.392C285.183 265.013 294.485 273.949 295.197 288.722C295.909 303.496 292.611 315.16 290.872 319.145C294.305 313.131 301.156 297.543 301.097 283.312C301.024 265.521 301.807 259.368 278.753 232.598C288.654 235.39 308.732 244.42 309.833 258.198C311.21 275.422 306.565 298.366 296.346 314.825C309.884 296.792 340.695 260.57 355.643 259.952C354.634 262.071 350.137 268.781 340.211 278.681C330.285 288.581 313.4 303.01 306.198 308.987C314.338 303.376 333.104 292.158 343.048 292.169C352.991 292.18 388.936 292.339 405.665 292.417C394.659 297.984 366.698 308.839 342.914 307.725C319.128 306.612 309.688 312.504 307.941 315.589C326.129 318.39 365.668 326.413 378.318 336.093C363.379 334.203 328.211 328.461 307.054 320.624C303.962 319.775 296.59 318.903 291.836 322.213C304.943 324.643 333.26 332.695 341.678 345.458C330.839 342.299 307.3 334.93 299.859 330.731C290.558 325.481 278.701 326.768 280.395 327.968C282.089 329.168 317.681 337.695 335.787 354.996C319.139 351.721 284.077 343.187 277.005 335.256C276.432 333.955 274.411 331.658 270.909 332.874C267.406 334.088 272.473 330.255 275.444 328.187C275.796 323.121 275.929 312.66 273.642 311.336Z" fill="#B7CFFD"/>
<path d="M1.5883 189.858C15.7591 283.683 135.549 342.237 179.138 341.874C262.857 341.179 124.593 298.854 310.206 268.169C495.818 237.483 214.348 15.7049 156.769 90.2582C119.364 138.69 -16.1245 72.5759 1.5883 189.858Z" fill="#ECE6E6"/>
<path d="M63.0641 190.32C68.3175 186.9 79.3752 190.116 84.2471 192.152C86.1928 192.429 89.4051 192.113 86.6865 188.628C83.2872 184.272 81.8688 176.476 83.6611 173.307C87.1641 175.197 93.8238 179.939 92.4397 183.791C90.7099 188.607 94.026 197.716 95.5894 191.983C97.1521 186.251 92.9608 180.143 101.8 171.429C104.105 174.663 107.912 183.681 104.701 193.879C100.687 206.627 108.08 209.846 109.309 202.278C110.539 194.712 109.141 185.728 117.333 177.368C120.587 181.356 126.221 191.054 122.736 197.942C118.379 206.551 113.085 221.727 117.651 222.081C122.218 222.435 122.758 201.964 127.343 195.919C131.013 191.082 133.972 188.08 134.994 187.184C138.185 191.262 142.948 201.987 136.477 212.26C128.389 225.102 122.49 238.256 128.808 237.817C135.125 237.378 132.017 221.599 139.959 211.864C146.314 204.075 148.611 203.42 148.966 204.067C151.371 207.735 154.1 217.961 145.779 229.519C135.376 243.966 133.876 251.345 138.713 251.886C143.551 252.428 140.212 234.084 158.246 222.513C160.213 226.814 162.743 237.329 157.122 244.985C150.097 254.553 141.78 270.042 147.973 271.521C154.166 273.001 153.017 254.97 161.939 246.714C169.077 240.109 169.486 240.446 168.798 241.439C171.37 244.287 175.179 252.027 169.843 260.2C163.172 270.415 151.04 289.677 157.837 293.178C164.634 296.679 162.673 283.297 165.466 275.208C167.7 268.738 174.569 261.867 177.724 259.239C179.781 263.603 182.716 273.918 177.997 280.272C172.098 288.215 162.301 309.895 166.096 312.521C169.891 315.147 172.642 304.224 174.664 298.408C176.686 292.592 179.311 283.587 186.525 278.958C189.52 281.967 193.861 290.368 187.257 299.907C179.002 311.832 171.331 321.755 176.209 325.131C181.089 328.508 176.959 318.836 184.965 310.747C191.369 304.276 195.36 301.908 196.556 301.532C198.175 304.79 200.018 312.746 194.431 318.501C187.448 325.693 177.65 336.95 182.362 339.409C187.074 341.868 187.094 330.258 191.18 326.671C194.449 323.803 198.602 320.584 200.269 319.334C202.354 322.113 203.423 330.414 191.015 341.389C188.965 343.577 185.52 348.168 188.138 349.018C191.412 350.081 195.184 338.261 199.417 336.781C200.668 338.448 202.148 342.679 198.062 346.265C193.976 349.851 192.219 357.988 191.851 361.608C190.578 360.745 187.266 358.965 184.207 358.75C181.647 357.703 178.061 357.054 174.358 357.92C165.268 360.048 157.136 354.42 158.449 352.523C159.763 350.627 172.877 353.689 174.107 351.334C175.337 348.978 167.31 347.832 160.263 348.167C154.625 348.434 146.863 342.235 143.686 339.102C146.862 338.76 154.357 338.629 158.928 340.829L159.26 340.99C164.802 343.66 168.831 345.6 169.873 342.392C170.937 339.119 159.365 336.723 149.691 335.64C141.951 334.775 134.539 327.026 131.8 323.261C134.211 323.059 140.094 322.747 144.33 323.114C149.627 323.571 160.74 331.262 160.719 327.238C160.697 323.216 145.373 321.029 133.071 318.529C123.23 316.529 118.044 307.997 116.682 303.981C119.253 303.356 125.459 303 129.713 306.585C135.03 311.066 152.273 318.589 152.46 313.106C152.647 307.624 129.046 302.916 120.872 299.666C114.333 297.065 110.321 289.425 109.132 285.93C112.802 285.263 117.722 286.262 123.623 288.742C129.523 291.222 145.099 299.996 144.494 292.763C143.888 285.53 122.246 283.781 112.572 282.699C104.833 281.832 97.9204 273.362 95.4322 269.235C98.1005 268.276 109.443 268.108 114.885 270.671C120.327 273.234 135.402 279.256 133.316 273.003C131.23 266.75 110.11 266.565 100.811 264.94C93.3713 263.64 85.9784 255.479 83.2117 251.56C95.4086 249.578 104.041 252.745 108.107 255.559C112.173 258.373 127.894 264.04 127.33 259.642C126.767 255.244 107.397 249.055 98.1402 250.265C90.7343 251.234 81.9321 244.529 78.4565 241.054C79.7499 240.346 95.3445 237.509 98.5972 239.76C101.85 242.01 107.938 244.22 114.694 244.886C121.449 245.552 110.585 234.026 95.3445 237.509C83.1522 240.295 72.2082 232.321 68.2595 227.986C93.7582 223.584 89.1098 233.195 101.87 230.4C114.629 227.605 98.4492 222.02 86.878 224.836C77.621 227.088 65.9934 219.871 61.3367 215.98C66.5687 209.58 85.1887 216.853 93.2569 215.622C101.326 214.391 93.6727 207.492 80.8303 209.828C70.5555 211.697 61.036 205.217 57.5612 201.744C62.5644 197.99 69.3194 198.657 79.8697 201.949C90.42 205.241 87.4381 197.967 78.764 197.176C71.8251 196.543 65.4058 192.341 63.0641 190.32Z" fill="#B6C7E5"/>
<path d="M138.444 267.333C160.447 321.84 179.131 346.393 191.851 361.608C190.578 360.745 187.266 358.965 184.207 358.75C181.647 357.703 178.061 357.054 174.358 357.92C165.268 360.048 157.136 354.42 158.449 352.523C159.763 350.627 172.877 353.689 174.107 351.334C175.337 348.978 167.31 347.832 160.263 348.167C154.625 348.434 146.863 342.235 143.686 339.102C146.862 338.76 154.357 338.629 158.928 340.829L159.26 340.99C164.802 343.66 168.831 345.6 169.873 342.392C170.937 339.119 159.365 336.723 149.691 335.64C141.951 334.775 134.539 327.026 131.8 323.261C134.211 323.059 140.094 322.747 144.33 323.114C149.627 323.571 160.74 331.262 160.719 327.238C160.697 323.216 145.373 321.029 133.071 318.529C123.23 316.529 118.044 307.997 116.682 303.981C119.253 303.356 125.459 303 129.713 306.585C135.03 311.066 152.273 318.589 152.46 313.106C152.647 307.624 129.046 302.916 120.872 299.666C114.333 297.065 110.321 289.425 109.132 285.93C112.802 285.263 117.722 286.262 123.623 288.742C129.523 291.222 145.099 299.996 144.494 292.763C143.888 285.53 122.246 283.781 112.572 282.699C104.833 281.832 97.9205 273.361 95.4322 269.235C98.1005 268.276 109.443 268.108 114.885 270.671C120.327 273.234 135.402 279.256 133.316 273.003C131.23 266.75 110.11 266.565 100.811 264.94C93.3713 263.64 85.9784 255.479 83.2117 251.56C95.4086 249.578 104.041 252.745 108.107 255.559C112.173 258.373 127.894 264.04 127.33 259.642C126.767 255.244 107.397 249.055 98.1402 250.265C90.7343 251.234 81.9321 244.529 78.4565 241.054C79.7499 240.346 95.3445 237.509 98.5972 239.76C101.85 242.01 107.938 244.22 114.694 244.886C121.449 245.552 110.585 234.026 95.3445 237.509C83.1522 240.295 72.2082 232.321 68.2595 227.986C93.7582 223.584 89.1098 233.195 101.87 230.4C114.629 227.605 98.4492 222.02 86.878 224.836C77.621 227.088 65.9934 219.871 61.3367 215.98C66.5687 209.58 85.1887 216.853 93.2569 215.622C101.326 214.391 93.6727 207.492 80.8303 209.828C70.5555 211.697 61.036 205.217 57.5612 201.744C62.5644 197.99 69.3194 198.657 79.8697 201.949C90.42 205.241 87.4381 197.967 78.7641 197.176C71.8251 196.543 65.4058 192.341 63.0641 190.32C68.3175 186.9 79.3752 190.116 84.2471 192.152C94.9782 199.043 120.842 223.727 138.444 267.333Z" fill="#DAE4FA"/>
<path fill-rule="evenodd" clip-rule="evenodd" d="M180.92 13.4179C182.064 16.2153 184.658 21.9619 185.879 22.5722L169.856 29.4379C170.237 35.9222 170.314 49.3485 167.567 51.1793C165.024 50.5439 159.555 49.3485 158.029 49.6536C159.173 44.0596 162.073 31.9553 164.515 28.2936C167.567 23.7165 174.815 15.325 180.92 13.4179ZM349.929 51.1793L354.888 42.4065H364.045L360.23 51.1793H349.929ZM146.965 91.6107L143.532 82.4565L151.162 79.405L154.214 93.5179L146.965 91.6107ZM124.075 118.692L127.508 126.702L138.572 121.362L135.901 113.734L124.075 118.692ZM371.675 99.1058C367.097 98.8007 364.935 91.3506 364.426 87.663C367.097 86.9001 372.438 85.8321 372.438 87.663C372.438 89.4938 373.964 93.7658 374.727 95.673C377.906 93.6384 384.722 89.4938 386.554 89.1887C388.843 88.8072 398.381 87.663 402.959 91.8587C406.621 95.2152 406.774 102.92 406.392 106.353L400.67 104.446C400.67 100.784 396.855 95.0375 394.947 92.6215C391.284 92.6215 384.519 96.9446 381.594 99.1058C380.195 99.2332 376.253 99.411 371.675 99.1058ZM355.079 125.723L356.796 130.176L352.981 131.661L351.455 124.795L355.079 125.723ZM338.64 163.701C338.076 162.344 336.796 159.558 336.194 159.262L344.096 155.933C343.909 152.79 343.87 146.28 345.225 145.392C346.479 145.7 349.176 146.28 349.929 146.132C349.364 148.844 347.934 154.713 346.73 156.488C345.225 158.708 341.651 162.776 338.64 163.701ZM82.8714 50.8253L85.9235 56.1653C87.1443 54.3345 95.0797 54.3856 98.8948 54.6396C100.116 57.0808 98.3859 66.3365 97.3688 70.6596C98.8948 70.6596 102.837 72.9482 104.617 74.0925C106.144 72.5668 108.433 53.1139 101.184 48.5368C95.3849 44.8751 86.5591 48.5368 82.8714 50.8253ZM320.934 34.3965L325.131 42.4065L333.905 40.8807L337.339 33.2522L320.934 34.3965ZM124.838 164.082V151.876L136.283 155.691L132.086 166.371L124.838 164.082ZM356.424 72.6591L349.25 72.5782L346.123 68.0545L356.623 66.6348L356.424 72.6591ZM329.896 94.7629L336.281 95.1306L336.748 85.7345L330.817 85.7985L329.896 94.7629ZM313.192 102.893L304.771 105.943L301.381 101.514L307.702 95.9522L313.192 102.893Z" fill="#FF5E5E"/>
<path fill-rule="evenodd" clip-rule="evenodd" d="M219.999 172.855C216.264 175.588 211.035 182.547 219.999 188.511C211.875 184.783 194.282 180.609 188.904 193.73C182.181 210.131 182.46 254.069 235.22 260.057C239.243 265.574 244.224 270.017 250.354 272.755C250.565 272.849 250.805 272.901 251.064 272.924C250.509 272.961 249.997 272.936 249.591 272.755C250.429 281.701 250.313 300.19 243.142 302.575H238.66V307.048H227.454C226.209 307.297 223.719 308.689 223.719 312.267V336.869H287.217V312.267C287.217 310.528 286.47 307.048 283.482 307.048H271.529V302.575H267.047H266.833C263.578 302.44 258.05 296.131 260.283 271.536C260.537 271.412 260.804 271.267 261.086 271.097C265.481 268.442 270.369 264.363 275.007 258.59C277.27 255.773 279.473 252.553 281.53 248.898C288.161 237.117 293.271 220.817 293.96 198.949C294.066 195.601 294.069 192.123 293.957 188.511C296.446 186.026 299.932 179.416 293.957 172.855H219.999ZM230.738 252.764C222.104 236.146 219.599 213.84 219.677 197.457C212.905 194.973 198.765 191.791 196.375 198.949C185.019 232.347 214.552 248.742 230.738 252.764ZM254.922 272.666C254.674 272.641 254.407 272.644 254.129 272.663C254.305 272.679 254.472 272.708 254.627 272.755C254.727 272.722 254.826 272.693 254.922 272.666ZM319.635 188.511C312.464 180.162 299.528 185.032 293.957 188.511C294.069 192.123 294.066 195.601 293.961 198.949C298.037 196.215 307.832 191.791 314.406 195.967C322.624 201.185 327.841 241.443 281.531 248.898C279.474 252.553 277.27 255.773 275.008 258.59C341.688 251.135 328.6 198.949 319.635 188.511Z" fill="#1B5C6A"/>
<path d="M216.506 150.628C218.664 150.432 222.473 153.161 224.107 154.55C222.343 155.923 221.574 162.15 221.41 165.092C218.713 165.828 211.601 176.614 211.112 178.576C210.719 180.145 208.496 179.229 207.433 178.576C206.207 172.692 213.809 150.873 216.506 150.628Z" fill="#A4C3FE"/>
<path d="M247.29 158.728C249.448 158.532 253.257 161.261 254.891 162.65C253.126 164.023 252.357 170.251 252.194 173.192C249.497 173.928 242.386 184.715 241.895 186.677C241.503 188.245 239.28 187.33 238.217 186.677C236.991 180.793 244.593 158.973 247.29 158.728Z" fill="#A4C3FE"/>
<path d="M252.181 77.3163C250.116 85.0479 244.285 81.39 241.629 78.5949C241.242 77.4315 240.341 74.8744 239.835 73.9514C239.204 72.7979 243.291 67.9347 240.062 68.2025C236.833 68.471 234.676 65.9025 236.565 65.2426C238.454 64.5835 238.399 63.1135 236.427 61.5679C234.455 60.0231 237.093 51.8285 238.535 51.039C239.978 50.2486 241.243 52.5563 243.187 53.3672C245.131 54.1774 248.36 53.9088 249.383 53.7235C250.202 53.5755 249.693 55.4292 249.335 56.3744C251.454 56.5895 254.8 58.4074 251.239 63.9572C247.678 69.507 250.383 75.1758 252.181 77.3163Z" fill="#EDC7C5"/>
<path d="M242.35 70.3247C243.003 72.0663 239.389 73.8209 237.5 74.4808C234.949 74.8615 232.72 74.3915 230.828 73.4975C227.832 72.0824 225.681 69.6054 224.44 67.757C222.413 64.7422 225.223 65.0786 225.855 66.2328C226.487 67.3862 226.926 63.3957 225.923 60.1948C224.92 56.9946 226.96 52.5021 228.979 51.3967C230.999 50.2906 230.47 47.9555 231.541 45.1184C232.613 42.2821 233.059 42.4126 234.742 44.1153C236.426 45.8187 234.976 42.4881 236.995 41.3819C239.015 40.2758 240.437 42.8718 241.599 46.3611C242.76 49.8504 237.203 54.7686 236.867 57.5774C236.53 60.387 239.162 63.8206 239.636 64.6865C240.109 65.5515 236.118 65.1121 236.62 66.7126C237.121 68.3131 241.532 68.1475 242.35 70.3247Z" fill="#4B5361"/>
<path fill-rule="evenodd" clip-rule="evenodd" d="M280.506 117.041C275.994 120.179 256.557 124.723 247.402 126.601C246.912 135.918 245.392 154.746 243.234 155.531C241.076 156.315 230.237 155.858 225.089 155.531C224.107 158.064 222.44 163.67 223.617 165.828C225.089 168.524 249.61 171.221 255.004 165.337C253.941 167.528 252.601 172.117 255.74 172.937C259.418 174.653 277.318 176.124 282.468 175.388C287.424 174.681 288.519 169.657 290.125 162.285C290.187 161.999 290.251 161.708 290.315 161.414C291.688 155.138 284.348 129.217 280.506 117.041ZM264.567 141.312C267.592 148.666 273.934 163.572 275.111 164.356C276.289 165.141 263.946 162.722 257.628 161.414C260.822 155.405 263.468 146.096 264.567 141.312Z" fill="#C4B7B6"/>
<path d="M243.117 79.3371C245.214 79.1739 249.858 77.8709 251.655 73.9621C253.453 70.0532 257.348 67.284 259.07 66.3884L260.868 25.8319C263.19 25.0988 268.014 24.0727 268.733 25.8319C269.631 28.0312 273.068 62.1606 269.473 68.513C270.446 69.0012 271.679 74.1375 272.169 75.8539C272.843 78.2127 273.473 86.2875 277.893 93.5713C283.694 103.128 287.106 110.673 286.882 116.292C284.335 117.269 279.699 119.209 278.62 122.336C275.923 124.096 268.822 124.536 265.607 124.536C265.867 125.886 266.086 127.126 266.261 128.2C253.903 131.376 243.117 128.933 244.465 128.2C245.813 127.467 243.117 113.118 240.421 105.479C238.805 100.903 234.803 95.9506 234.578 92.7741H225.366C219.973 92.7741 198.851 77.3827 198.851 73.9621C198.851 71.2257 202.146 69.5642 203.794 69.076C209.936 73.8804 223.299 83.539 227.613 83.7342C231.927 83.9303 236.301 80.8842 237.949 79.3371H243.117Z" fill="#DAE4FA"/>
<path d="M251.655 73.9621C249.858 77.8709 245.214 79.1747 243.117 79.3371C243.117 85.6895 251.655 94.9734 257.048 99.8595C260.77 103.231 263.979 116.057 265.607 124.536C268.822 124.536 275.923 124.096 278.62 122.336C276.074 113.785 270.037 95.1199 266.261 88.8652C261.543 81.0475 259.07 77.3827 254.128 77.3827L251.655 73.9621Z" fill="#C4C4C4"/>
<path d="M241.97 16.0902C239.765 16.7112 239.365 14.9024 239.441 13.9206L249.69 1.97733C251.578 1.92164 252.163 3.40006 252.219 4.1469C252.818 4.62902 253.38 5.11191 253.906 5.59251C257.344 8.73472 259.269 11.8182 260.253 14.5218C260.558 15.3609 260.774 16.1627 260.915 16.9187C261.205 18.4673 261.186 19.8221 261.006 20.9C260.907 21.4966 260.659 21.6369 260.485 22.0496C260.225 22.2159 260.058 22.7347 259.787 22.8628C258.495 23.4731 257.087 23.6623 255.638 23.5471C255.044 23.4998 254.442 23.4014 253.839 23.2603C249.958 22.3517 246.007 19.6649 243.371 17.3825C242.849 16.9301 242.379 16.4937 241.97 16.0902Z" fill="#FFCB56"/>
<path d="M241.97 16.0902C239.765 16.7112 239.365 14.9024 239.441 13.9206L249.69 1.97733C251.578 1.92164 252.163 3.40006 252.219 4.1469L241.97 16.0902Z" fill="#FFCB56"/>
<path d="M259.682 22.9857C259.953 22.8575 260.12 22.3387 260.379 22.1724C260.553 21.7597 260.801 21.6201 260.901 21.0228C264.609 24.8592 266.413 24.844 266.888 24.3344L266.918 24.2993L267.539 23.5753L268.262 24.1955L269.918 22.2655C270.333 21.7826 270.998 22.1442 271.28 22.3853L275.254 25.7945L266.454 36.0488L262.48 32.6396C261.901 32.1438 262.022 31.5487 262.155 31.313L263.707 29.5035L262.985 28.8841L263.606 28.1601C264.214 26.671 261.243 24.0903 259.682 22.9857Z" fill="#FFCB56"/>
<path fill-rule="evenodd" clip-rule="evenodd" d="M241.97 16.0909C242.379 16.4937 242.849 16.9301 243.371 17.3825C242.031 18.1316 239.558 19.9747 240.383 21.3524C244.205 27.8145 250.947 25.3169 253.839 23.2603C254.443 23.4022 255.044 23.4998 255.638 23.5471C247.36 31.2375 240.222 25.1941 238.504 21.8353C237.13 19.1485 240.242 16.8858 241.97 16.0909ZM252.219 4.14689C252.429 2.76536 253.435 0.0015258 255.778 8.52666e-08C258.706 -0.000762772 268.952 5.11725 260.915 16.9187C260.773 16.1627 260.559 15.3609 260.253 14.5225C265.467 6.01055 258.24 1.27397 256.257 1.87815C254.672 2.36104 254.029 4.55578 253.906 5.5925C253.38 5.1119 252.818 4.62978 252.219 4.14689Z" fill="#FADB96"/>
<path d="M193.217 47.0324C191.28 45.8081 192.358 44.3014 193.139 43.701L208.875 43.3333C210.179 44.6996 209.47 46.1239 208.953 46.6647L193.217 47.0324Z" fill="#8C7D5C"/>
<path d="M193.217 47.0317C191.28 45.8073 192.358 44.3007 193.139 43.701L208.874 43.3333C210.179 44.6996 209.47 46.1231 208.952 46.664C208.994 47.4322 209.011 48.1722 209.006 48.8847C208.967 53.5411 207.961 57.035 206.609 59.5746C206.189 60.3626 205.737 61.0583 205.269 61.6686C204.311 62.9205 203.291 63.8122 202.37 64.3989C201.858 64.7246 201.589 64.6338 201.166 64.7803C200.868 64.6979 200.37 64.9207 200.094 64.8055C198.777 64.2532 197.695 63.3324 196.811 62.179C196.449 61.7052 196.12 61.1926 195.821 60.6494C193.902 57.1563 193.258 52.4228 193.193 48.9373C193.18 48.2469 193.19 47.6053 193.217 47.0317Z" fill="#FFCB56"/>
<path d="M199.932 64.8093C200.208 64.9245 200.706 64.7017 201.003 64.7841C201.426 64.6376 201.697 64.7284 202.207 64.4027C201.834 69.7251 203.052 71.0556 203.748 71.0685L203.794 71.067L204.748 71.0449L204.77 71.9969L207.313 71.9374C207.949 71.9222 208.125 72.6591 208.134 73.0291L208.256 78.2638L194.746 78.5789L194.623 73.3449C194.606 72.5836 195.129 72.2746 195.393 72.2159L197.776 72.1602L197.754 71.2081L198.708 71.186C200.222 70.6428 200.155 66.708 199.932 64.8093Z" fill="#FFCB56"/>
<path fill-rule="evenodd" clip-rule="evenodd" d="M193.217 47.0324C193.19 47.6053 193.18 48.2469 193.193 48.9373C191.74 48.4422 188.715 47.8357 188.242 49.3706C185.992 56.533 192.357 59.8744 195.821 60.6494C196.12 61.1926 196.449 61.7052 196.811 62.179C185.556 61.1674 185.278 51.8201 186.627 48.2972C187.706 45.4785 191.47 46.2795 193.217 47.0324ZM208.953 46.6647C210.121 45.8965 212.849 44.7957 214.416 46.5366C216.376 48.713 219.42 59.7515 205.269 61.6694C205.737 61.0583 206.189 60.3626 206.609 59.5746C216.425 57.7582 215.115 49.2188 213.341 48.1492C211.921 47.2933 209.859 48.2835 209.006 48.8854C209.011 48.1721 208.994 47.4321 208.953 46.6647Z" fill="#FADB96"/>
</svg>
