<svg width="295" height="241" viewBox="0 0 295 241" fill="none" xmlns="http://www.w3.org/2000/svg">
<path fill-rule="evenodd" clip-rule="evenodd" d="M114 34.0587L137.217 55.1237L152.519 88.828L159.378 71.9758L183.651 98.3071L294.458 9.30713L114 34.0587ZM0.895828 185.28V81.6514L75.5452 19.1175L86.2946 13.7571L159.75 129.892V228.16L145.418 240.071L0.895828 185.28Z" fill="#ECE6E6"/>
<path d="M149.001 140.017L145.418 240.071L159.75 228.16V129.892L86.2946 13.7571L75.5452 19.1174L149.001 140.017Z" fill="black" fill-opacity="0.31"/>
<path fill-rule="evenodd" clip-rule="evenodd" d="M0.895828 81.6519V185.28L74.9479 162.648L145.418 240.072L149.001 140.017L74.9479 162.648L0.895828 81.6519Z" fill="black" fill-opacity="0.15"/>
<path d="M152.519 88.828L137.217 55.1237L294.458 9.30713L159.378 71.9758L152.519 88.828Z" fill="black" fill-opacity="0.14"/>
<path d="M74.9625 158.064L14.875 92.5318V60.9565L136.24 103.255V140.788L74.9625 158.064Z" fill="white"/>
<path d="M20.8244 53.8071L136.24 94.9143V103.255L14.875 60.9564L20.8244 53.8071Z" fill="#C3B7B6"/>
<path d="M26.1784 82.4035V73.4673L125.531 108.617V118.148L26.1784 82.4035Z" fill="black" fill-opacity="0.24"/>
<path d="M232.272 13.3223C232.272 20.0755 228.168 25.5503 223.105 25.5503C221.813 25.5503 220.584 25.1937 219.469 24.5503C217.328 23.3151 215.611 21.0227 214.686 18.1671C214.205 16.6815 213.938 15.0432 213.938 13.3223C213.938 6.56851 218.042 1.09375 223.105 1.09375C228.168 1.09375 232.272 6.56851 232.272 13.3223Z" fill="#8A6564"/>
<path d="M214.686 18.167L212.669 21.0042L211.251 23.1319C212.078 24.432 215.364 28.4516 216.214 28.4516C217.065 28.4516 218.738 25.8509 219.469 24.5502C217.328 23.315 215.611 21.0226 214.686 18.167Z" fill="#8A6564"/>
<path d="M192.759 83.317C192.759 80.9299 191.091 78.8409 190.257 78.0946C190.257 75.8562 194.01 75.4831 196.199 76.6025C198.389 77.7214 200.578 81.8249 200.891 83.317C201.204 84.8096 200.265 85.1828 199.014 86.6748C198.259 87.5762 197.275 88.2056 196.199 88.7269C195.495 89.0683 194.753 89.3639 194.01 89.6588C192.133 90.4052 192.759 86.3016 192.759 83.317Z" fill="#8A6564"/>
<path d="M241.945 137.131C240.723 134.38 238.889 128.087 238.125 125.285C238.125 123.451 242.709 122.228 245.001 121.846C245.637 122.356 247.216 123.757 248.438 125.285C249.966 127.196 253.404 132.545 257.987 134.456C262.571 136.367 266.008 132.163 268.3 132.545C270.591 132.927 268.682 135.603 264.099 139.042C259.515 142.481 257.224 142.481 254.932 142.481C252.64 142.481 253.404 143.628 253.022 144.774C252.64 145.92 247.293 148.977 245.764 147.449C244.237 145.92 243.473 140.571 241.945 137.131Z" fill="#4B5361"/>
<path d="M252.93 96.6933C250.673 94.7023 246.385 89.7463 244.523 87.5175C243.76 85.85 247.417 82.8278 249.341 81.5246C250.132 81.7223 252.15 82.3377 253.898 83.2181C256.083 84.3179 261.436 87.7476 266.398 87.5734C271.361 87.3992 272.735 82.145 274.977 81.5366C277.219 80.9289 276.598 84.1564 273.864 89.1938C271.13 94.2312 269.047 95.1867 266.964 96.1422C264.88 97.0976 266.052 97.8211 266.183 99.0226C266.313 100.224 262.726 105.232 260.7 104.48C258.674 103.728 255.751 99.1828 252.93 96.6933Z" fill="#4B5361"/>
<path fill-rule="evenodd" clip-rule="evenodd" d="M210.931 20.1987C208.258 20.1987 202.112 20.966 198.906 24.0372C196.365 26.4701 195.568 30.4452 194.816 34.2029C194.381 36.3738 193.961 38.4724 193.227 40.1595C191.223 44.7659 187.214 58.5851 186.88 70.8684C186.079 77.01 186.546 79.5694 186.88 80.0811C189.552 79.3132 195.431 77.7779 197.569 77.7779C198.335 77.7779 198.552 76.7379 198.535 75.0908C202.222 77.5224 210.062 83.2285 211.933 86.6067C213.803 89.9849 222.956 100.298 227.298 105.032C227.576 104.419 227.818 103.793 228.028 103.157C228.796 103.994 229.387 104.641 229.723 105.034C229.417 110.231 234.688 121.72 237.362 126.815C239.501 127.732 244.364 124.395 246.529 122.612C244.619 119.937 241.563 100.83 241.181 97.0089C240.923 94.4254 238.745 92.8901 235.709 90.7497C234.253 89.7243 232.601 88.559 230.868 87.0733C229.817 86.1719 228.751 85.4478 227.735 84.863C227.587 84.369 227.44 83.9247 227.298 83.5362C226.38 82.8573 225.156 81.9323 223.846 80.9101C225.912 78.8955 228.673 74.8435 230.105 72.5524C231.632 77.4435 240.417 85.0352 244.619 88.2195C246.758 87.6086 249.839 82.6151 251.112 80.1949C250.69 79.5923 250.088 78.666 249.348 77.5287C245.4 71.4583 237.543 59.3791 232.397 58.4134C229.169 57.8082 222.659 60.6098 216.994 63.6104C217.3 62.6492 217.623 61.6168 217.945 60.5043C219.949 53.5947 222.956 37.0884 221.286 35.1692C220.118 33.8272 218.787 31.1712 217.52 28.6448C216.976 27.5584 216.443 26.4961 215.941 25.5724C214.605 23.116 212.044 20.966 210.931 20.1987Z" fill="#1B5C6A"/>
<path d="M232.397 58.4137C227.507 57.4963 215.081 64.4002 209.479 67.9672C209.989 70.7694 211.236 77.5201 212.153 82.1061C213.298 87.8377 227.431 102.359 229.723 105.034C229.417 110.231 234.688 121.721 237.362 126.815C239.501 127.733 244.364 124.395 246.529 122.612C244.619 119.937 241.563 100.83 241.181 97.0091C240.799 93.1879 236.216 91.659 230.868 87.0736C225.521 82.4882 219.792 82.4882 222.084 82.1061C223.917 81.8003 228.195 75.6097 230.105 72.5526C231.632 77.4438 240.417 85.0355 244.619 88.2198C246.758 87.6088 249.839 82.6153 251.112 80.1951C248.438 76.3739 238.507 59.5599 232.397 58.4137Z" fill="black" fill-opacity="0.16"/>
<path d="M224.663 5.14119C226.399 4.91678 228.142 5.05218 228.797 5.14817C228.776 6.71012 229.049 10.2199 230.313 11.7647C231.893 13.6954 230.884 18.8218 230.174 20.7753C229.463 22.7282 227.688 24.0798 226.251 24.6977C224.813 25.3156 222.11 28.8266 221.507 33.0306C220.905 37.2352 226.385 40.0152 227.364 39.0871C234.059 33.0351 232.492 27.5412 232.223 25.7307C231.954 23.9208 232.642 22.8153 234.079 20.6272C235.517 18.4397 236.131 14.5962 236.355 12.6089C236.578 10.621 234.815 7.62492 234.288 5.93456C233.762 4.24483 232.611 4.46796 231.981 4.23846C231.351 4.00897 230.887 4.69618 230.653 2.39935C230.418 0.101876 224.876 -0.346308 221.526 0.43117C218.175 1.20929 219.79 1.86853 216.068 3.08147C212.345 4.29505 212.906 5.49782 210.878 9.89633C208.85 14.2955 207.121 12.3813 203.358 15.8631C199.595 19.3443 202.674 26.9583 203.132 28.8374C203.59 30.7166 200.921 31.3854 202.479 34.1641C204.035 36.9428 203.033 37.9339 201.464 40.2873C199.894 42.6413 200.312 43.6496 200.626 46.1187C200.941 48.5878 201.124 49.6533 202.362 46.2509C203.599 42.8486 205.339 44.3387 207.092 43.0501C212.487 39.5925 214.451 38.3096 215.54 33.3555C216.629 28.4007 212.593 26.3601 213.945 24.2126C215.296 22.0645 215.005 19.5331 215.32 16.5084C215.636 13.4843 219.336 12.3337 221.002 10.3006C222.669 8.26826 222.492 5.4209 224.663 5.14119Z" fill="#4B5361"/>
</svg>
